<svg xmlns="http://www.w3.org/2000/svg" id="Layer_1" data-name="Layer 1" viewBox="219.04 390.58 1588.59 298.84">
  <defs>
    <style>
      .cls-1 {
        fill: #fffcfa;
      }

      .cls-1, .cls-2 {
        stroke-width: 0px;
      }

      .cls-2 {
        fill: #9dbac0;
      }
    </style>
  </defs>
  <rect class="cls-2" x="219.04" y="390.58" width="1588.59" height="298.84" rx="134.63" ry="134.63"/>
  <g>
    <path class="cls-1" d="m332.65,626.66v-140.76h-33.34v-31.28h97.9v31.28h-33.34v140.76h-31.28.05Zm24.47-147.57h33.34v-17.67h-84.29v17.67h33.34v140.76h17.67v-140.76h-.05Z"/>
    <path class="cls-1" d="m415.35,626.66v-172.04h31.28v172.04h-31.28Zm24.47-165.24h-17.67v158.44h17.67s0-158.44,0-158.44Z"/>
    <path class="cls-1" d="m464.76,626.66v-172.04h89.29v31.28h-58.02v38.75h42.4v31.28h-42.4v39.42h58.02v31.28h-89.29v.05Zm82.49-24.47h-58.02v-53.02h42.4v-17.67h-42.4v-52.35h58.02v-17.67h-75.69v158.44h75.69v-17.72Z"/>
    <path class="cls-1" d="m637.73,626.87l-34.21-86.56v86.35h-31.28v-172.04h32.41l34.47,87.28v-87.28h31.28v172.25h-32.67Zm25.87-165.44h-17.67v116.03l-46.01-116.03h-20.87v158.44h17.67v-115.16l45.55,115.36h21.33v-158.64h0Z"/>
    <path class="cls-1" d="m688.48,626.66v-172.04h41.27c30.4,0,56.88,26.53,56.88,56.88v58.27c0,30.61-26.54,56.88-56.88,56.88h-41.27Zm91.35-56.88v-58.27c0-27.67-22.41-50.08-50.08-50.08h-34.47v158.44h34.47c27.67,0,50.08-22.46,50.08-50.08Zm-66.88,32.41v-123.09h16.8c17.93,0,32.41,14.53,32.41,32.41v58.27c0,17.88-14.53,32.41-32.41,32.41h-16.8Zm42.4-32.41v-58.27c0-14.94-10.67-25.61-25.61-25.61h-10v109.49h10c14.94,0,25.61-10.41,25.61-25.61Z"/>
    <path class="cls-1" d="m880.46,626.66l-13.81-53.48h-28.54l-13.81,53.48h-32.41l45.34-172.04h30.4l45.34,172.04h-32.51Zm-18.14-165.24h-19.94l-41.68,158.44h18.34l13.81-53.48h39l13.81,53.48h18.34l-41.68-158.44h0Zm-24.94,87.02l14.94-56.01,14.94,56.01h-29.94.05Zm14.94-29.47l-6.13,22.67h12.26s-6.13-22.67-6.13-22.67Z"/>
    <path class="cls-1" d="m1011.43,626.66v-172.04h41.27c30.4,0,56.88,26.53,56.88,56.88v58.27c0,30.61-26.54,56.88-56.88,56.88h-41.27Zm91.35-56.88v-58.27c0-27.67-22.41-50.08-50.08-50.08h-34.47v158.44h34.47c27.67,0,50.08-22.46,50.08-50.08Zm-66.88,32.41v-123.09h16.8c17.93,0,32.41,14.53,32.41,32.41v58.27c0,17.88-14.53,32.41-32.41,32.41h-16.8Zm42.4-32.41v-58.27c0-14.94-10.67-25.61-25.61-25.61h-10v109.49h10c14.94,0,25.61-10.41,25.61-25.61Z"/>
    <path class="cls-1" d="m1127.72,626.66v-172.04h31.28v172.04h-31.28Zm24.47-165.24h-17.67v158.44h17.67s0-158.44,0-158.44Z"/>
    <path class="cls-1" d="m1177.13,540.77c0-46.47,40.14-86.15,87.02-86.15,22.41,0,44.88,9.07,65.74,29.21l-21.74,22.21c-15.66-15.2-28.8-20.4-43.95-20.4-31.74,0-55.75,23.8-55.75,55.08s24.01,54.87,55.75,54.87c29.01,0,51.47-19.73,54.15-39.21h-43.54v-31.07h76.62v15.41c0,46.47-40.14,85.89-87.28,85.89s-87.02-39.42-87.02-85.89v.05Zm167.5,0v-8.6h-63.01v17.47h44.67c-4.33,29.68-30.61,52.81-62.09,52.81-34.47,0-62.55-27.67-62.55-61.62s28.13-61.88,62.55-61.88c16.54,0,31.95,6.34,43.74,17.67l12.47-12.47c-15.2-14.53-35.14-22.67-56.21-22.67-44.21,0-80.22,35.6-80.22,79.35s36.02,79.09,80.22,79.09,80.48-35.6,80.48-79.09l-.05-.05Z"/>
    <path class="cls-1" d="m1369.58,626.66v-172.04h31.28v172.04h-31.28Zm24.47-165.24h-17.67v158.44h17.67s0-158.44,0-158.44Z"/>
    <path class="cls-1" d="m1452.27,626.66v-140.76h-33.34v-31.28h97.9v31.28h-33.34v140.76h-31.28.05Zm24.47-147.57h33.34v-17.67h-84.29v17.67h33.34v140.76h17.67v-140.76h-.05Z"/>
    <path class="cls-1" d="m1598.96,626.66l-13.81-53.48h-28.54l-13.81,53.48h-32.41l45.34-172.04h30.4l45.34,172.04h-32.51Zm-18.14-165.24h-19.94l-41.68,158.44h18.34l13.81-53.48h39l13.81,53.48h18.34l-41.68-158.44h0Zm-24.94,87.02l14.94-56.01,14.94,56.01h-29.94.05Zm14.94-29.47l-6.13,22.67h12.26s-6.13-22.67-6.13-22.67Z"/>
    <path class="cls-1" d="m1648.32,626.66v-172.04h31.28v140.76h58.02v31.28h-89.29Zm82.49-24.47h-58.02v-140.76h-17.67v158.44h75.69v-17.67Z"/>
  </g>
</svg>