<?xml version="1.0" encoding="UTF-8"?>
<svg id="Layer_1" data-name="Layer 1" xmlns="http://www.w3.org/2000/svg" viewBox="0 0 1977.62 1080">
  <defs>
    <style>
      .cls-1 {
        fill: #887a71;
      }

      .cls-1, .cls-2 {
        stroke-width: 0px;
      }

      .cls-2 {
        fill: #8e6b51;
      }
    </style>
  </defs>
  <g>
    <g>
      <path class="cls-2" d="m394.08,477.89c5,0,9.22-2.44,11.32-5.14-12.64,0-22.64-10.03-22.64-22.75s10.25-23.04,23.15-23.04c13.67,0,23.41,12.47,23.41,24.65,0,20.6-17.64,35.5-42.63,35.5-42.89,0-66.56-35.76-89.71-76.15-23.41-41.45-35.25-85.92-62.88-85.92h-3.16v65.87c0,8.13,1.84,11.12,5.52,13.56,5,2.99,8.16,2.15,11.58,4.6,1.58,1.35,1.84,4.08,1.32,4.88-1.06,1.35-19.22-1.35-40.53-1.35s-39.73,2.7-40.79,1.35c-.52-.8-.52-3.53,1.32-4.88,3.16-2.15,7.1-1.35,12.38-4.6,3.42-2.44,5.52-5.43,5.52-13.56v-143.63c.26-8.13-1.84-11.12-5.52-13.56-5-3.25-8.42-2.44-11.58-4.6-1.84-1.35-2.1-4.08-1.32-4.88,1.06-1.35,16.06,1.35,37.37,1.35s36.05-1.35,57.88-1.35c38.41,0,58.69,23.84,58.69,47.97,0,30.91-27.63,47.68-52.62,51.76,8.16,1.09,16.83,3.25,25.8,10.57,16.57,13.82,24.99,39.84,37.89,71.27,8.93,21.95,28.41,72.1,60.27,72.1l-.03-.03Zm-163.13-162.07h20.25c26.05,0,31.31-34.15,22.38-57.19-6.58-17.35-18.41-24.93-29.21-24.93-7.35,0-13.16,3.25-13.16,17.35l-.26,64.78h0Z"/>
      <path class="cls-2" d="m413.82,275.7c38.66,0,58.69,30.62,55.78,60.15-.26,3.53-2.64,4.34-5.77,4.6h-76.58c3.42,25.74,17.35,55.01,46.56,55.01,12.35,0,22.64-5.69,29.47-14.36l4.74,3.25c-4.19,9.77-24.99,32.26-54.2,32.26-38.15,0-65.78-30.08-65.78-70.2s28.15-70.72,65.78-70.72v.03Zm19.99,58c-.52-24.65-10.51-53.92-27.38-50.96-13.93,2.7-22.09,24.13-19.99,50.96h47.37Z"/>
      <path class="cls-2" d="m541.96,275.7c10.51,0,19.99,1.9,28.41,5.43,12.9-23.04,39.73-55.3,67.62-55.3,11.06,0,19.22,8.93,19.22,19.25,0,10.83-8.42,19.25-18.67,19.25s-18.67-8.39-18.67-18.96c0-2.15.26-4.08.78-5.69-18.15,5.97-34.99,27.92-44.21,44.18,16.06,8.93,26.05,24.13,26.05,42,0,30.36-23.96,52.02-60.52,52.02-11.32,0-21.31-1.9-29.73-5.69-3.94,1.9-6.84,4.6-6.84,7.32,0,5.14,18.41,8.39,52.11,14.62,39.47,7.58,53.4,19.79,53.4,40.1,0,22.49-25.25,47.43-68.14,47.43-27.38,0-57.11-10.28-57.11-33.32,0-10.83,8.42-19.5,18.96-19.5s18.93,8.68,18.93,19.5c0,8.93-6.06,16.26-13.67,18.7,5.26,4.34,18.96,7.87,33.67,7.87,27.63,0,39.21-9.77,39.21-18.96,0-9.77-14.99-16.52-43.69-25.19-34.99-10.57-55.53-18.15-55.53-34.96,0-11.38,10-21.69,21.57-27.38-14.48-8.93-23.15-23.58-23.15-40.93,0-30.08,23.15-51.76,59.98-51.76l.03-.03Zm6.84,94.59c11.06,0,17.9-17.35,13.67-43.63-4.22-26.03-14.74-43.38-27.63-43.38-10.8,0-17.09,17.35-12.9,43.38,3.94,26.28,13.16,43.63,26.83,43.63h.03Z"/>
      <path class="cls-2" d="m704.29,426.94c11.32,0,19.48,10.28,19.48,20.34,0,16-18.15,34.41-43.95,34.41-31.05,0-58.14-22.49-58.14-60.44v-100.83c0-7.58-2.1-11.12-5.26-13.27-3.94-2.99-7.1-2.99-10-5.14-1.58-1.09-1.84-3.53-1.32-4.88,20.25,0,41.82-7.04,51.82-21.4h5.77v163.96c0,26.03,12.38,33.87,25.25,33.87,7.1,0,15.25-4.34,18.15-8.68-11.32,0-20.8-6.23-20.8-18.96,0-10.57,8.42-18.96,18.93-18.96l.06-.03Zm-63.68-210.84c12.64,0,22.64,10.28,22.64,23.3s-10,23.3-22.64,23.3-22.89-10.28-22.89-23.3,10.25-23.3,22.89-23.3Z"/>
      <path class="cls-2" d="m876.64,426.94c11.32,0,19.48,10.28,19.48,20.34,0,16.26-18.15,34.41-43.95,34.41-31.05,0-58.14-22.49-58.14-60.44v-98.93c0-17.35-5-29.27-19.48-29.27-8.68,0-17.64,5.14-26.57,11.92v85.92c0,8.13,1.84,11.12,5.52,13.56,5,3.25,7.9,2.44,11.06,4.6,1.84,1.35,1.84,4.08,1.32,4.88-1.06,1.35-16.83-1.35-38.15-1.35s-38.41,2.7-39.47,1.35c-.52-.8-.26-3.53,1.32-4.88,3.42-2.44,6.84-1.35,11.83-4.6,3.68-2.44,5.52-5.43,5.52-13.56v-70.46c0-7.58-2.1-11.12-5.26-13.27-3.94-2.99-7.1-2.99-10-5.14-1.58-1.09-1.84-3.53-1.32-4.88,20.25,0,41.82-7.04,51.82-21.4h5.77v21.69c11.06-8.93,29.21-21.69,45.79-21.69,27.63,0,41.31,19.25,41.31,52.02v111.91c0,26.03,12.35,33.87,25.25,33.87,7.1,0,15.25-4.34,18.15-8.68-11.32,0-20.8-6.23-20.8-18.96,0-10.57,8.42-18.96,18.96-18.96h.03Z"/>
      <path class="cls-2" d="m1022.39,426.94c11.58,0,19.48,10.28,19.48,20.34,0,16-17.9,34.41-43.95,34.41-31.05,0-58.14-22.49-58.14-60.44v-27.38c-9.48,11.66-23.41,22.75-40.79,22.75-19.99,0-35.25-13.01-35.25-33.32,0-26.57,24.99-36.31,51.04-43.38,9.22-2.15,18.67-4.34,24.99-5.97v-21.69c0-20.6-12.64-29.27-25.8-29.27-9.22,0-17.38,4.6-21.31,7.87,8.68,1.9,14.99,9.48,14.99,18.96,0,10.83-8.42,19.5-18.96,19.5s-18.93-8.68-18.93-19.5c0-16.26,19.73-34.15,50.27-34.15,32.89,0,60.78,18.44,60.78,56.36v107.61c0,26.03,12.38,33.87,25.25,33.87,7.1,0,15.51-4.34,18.41-8.68-11.32,0-21.06-6.23-21.06-18.96,0-10.57,8.42-18.96,18.93-18.96l.03.03Zm-82.61-85.92c-17.64,4.6-37.37,11.38-37.37,34.15,0,10.28,5.77,20.6,16.32,20.6,7.35,0,16.32-5.43,21.06-11.66v-43.09Z"/>
      <path class="cls-2" d="m1279.97,473.27c3.94,7.04,13.16,12.21,22.64,12.21,17.35,0,34.73-12.21,34.73-48.23v-31.71c-7.35,6.49-17.64,11.12-31.83,11.12-44.98,0-90.26-37.4-90.26-96.2s41.57-98.93,98.67-98.93c21.57,0,43.95,6.23,52.37,10.57,2.9,12.47,5.26,28.73,7.35,44.98-1.58.8-6.32.55-7.35-1.9-11.06-24.68-33.67-44.44-58.4-44.44-34.99,0-48.4,35.76-48.4,67.22,0,7.87.52,16.26,1.84,24.93,6.58,53.11,30.25,84.28,49.98,84.28,10.51,0,19.73-5.97,26.05-13.56v-43.63c0-8.13-1.84-11.12-5.52-13.56-5.26-3.25-9.22-2.44-12.35-4.88-1.84-1.09-1.84-3.79-1.32-4.6,1.06-1.35,19.48,1.35,40.79,1.35s39.47-2.7,40.53-1.35c.52.8.26,3.53-1.32,4.6-3.42,2.44-6.58,1.64-11.58,4.88-3.68,2.44-5.52,17.9-5.52,26.03v47.43c0,55.81-31.05,84.83-75.78,84.83-27.63,0-52.11-19.79-52.11-42.54,0-11.92,9.74-24.68,23.41-24.68,12.9,0,23.15,10.28,23.15,23.04,0,11.66-8.42,21.4-19.73,22.75h-.06Z"/>
      <path class="cls-2" d="m1571.77,426.94c11.58,0,19.48,10.28,19.48,20.34,0,16-17.9,34.41-43.95,34.41-31.05,0-58.14-22.49-58.14-60.44v-27.38c-9.48,11.66-23.41,22.75-40.79,22.75-19.99,0-35.25-13.01-35.25-33.32,0-26.57,24.99-36.31,51.04-43.38,9.22-2.15,18.67-4.34,24.99-5.97v-21.69c0-20.6-12.64-29.27-25.8-29.27-9.22,0-17.38,4.6-21.31,7.87,8.68,1.9,14.99,9.48,14.99,18.96,0,10.83-8.42,19.5-18.96,19.5s-18.93-8.68-18.93-19.5c0-16.26,19.73-34.15,50.27-34.15,32.89,0,60.78,18.44,60.78,56.36v107.61c0,26.03,12.38,33.87,25.25,33.87,7.1,0,15.51-4.34,18.41-8.68-11.32,0-21.06-6.23-21.06-18.96,0-10.57,8.42-18.96,18.93-18.96l.03.03Zm-82.61-85.92c-17.64,4.6-37.37,11.38-37.37,34.15,0,10.28,5.77,20.6,16.32,20.6,7.38,0,16.32-5.43,21.06-11.66v-43.09Z"/>
      <path class="cls-2" d="m1622.81,275.7c38.66,0,58.69,30.62,55.78,60.15-.26,3.53-2.64,4.34-5.8,4.6h-76.58c3.42,25.74,17.38,55.01,46.56,55.01,12.35,0,22.64-5.69,29.47-14.36l4.74,3.25c-4.22,9.77-24.99,32.26-54.2,32.26-38.15,0-65.78-30.08-65.78-70.2s28.15-70.72,65.78-70.72l.03.03Zm19.99,58c-.52-24.65-10.51-53.92-27.38-50.96-13.96,2.7-22.09,24.13-19.99,50.96h47.37Z"/>
      <path class="cls-2" d="m1786.23,426.94c11.58,0,19.48,10.28,19.48,20.34,0,16-18.15,34.41-43.95,34.41-31.05,0-58.14-22.49-58.14-60.44v-167.76c0-7.58-2.1-11.12-5.26-13.27-4.22-3.25-7.1-2.99-10-5.14-1.58-1.09-1.84-3.53-1.32-4.88,25.51,0,42.37-9.48,51.82-24.93h5.77v234.43c0,26.03,12.38,33.87,25.25,33.87,7.1,0,15.25-4.34,18.15-8.68-11.32,0-20.8-6.23-20.8-18.96,0-10.57,8.42-18.96,18.93-18.96l.06-.03Z"/>
    </g>
    <g>
      <path class="cls-2" d="m350.79,550.66v-7.47c0-5.34.86-9.16,2.61-11.49,1.72-2.3,4.05-3.48,6.89-3.48s5.17,1.15,6.92,3.48c1.72,2.33,2.61,6.15,2.61,11.49v57.16c0,5.34-.86,9.16-2.61,11.49-1.72,2.33-4.05,3.48-6.92,3.48s-4.94-1.06-6.69-3.22-2.67-5.6-2.84-10.43c-.75-14.97-7.3-28.41-19.59-40.33-12.32-11.92-28.44-17.9-48.34-17.9-21,0-37.69,6.38-50.07,19.1-12.38,12.73-18.56,27.75-18.56,45.01,0,8.9,1.72,17.01,5.2,24.3,3.48,7.3,8.07,13.21,13.82,17.75,5.75,4.54,12.24,8.19,19.48,10.94,7.24,2.76,18.59,5.66,33.98,8.68,25.82,5,43.63,10.05,53.46,15.22,13.13,6.95,23.07,16.57,29.79,28.84,6.72,12.29,10.08,26.8,10.08,43.55,0,25.65-8.68,47.51-26.05,65.58-17.38,18.07-40.76,27.12-70.2,27.12-33.06,0-59.49-12.21-79.28-36.6v12.81c0,5.34-.86,9.16-2.61,11.49-1.72,2.33-4.05,3.48-6.92,3.48s-4.97-1.15-6.81-3.48c-1.81-2.3-2.73-6.15-2.73-11.49v-61.99c0-5.52.86-9.45,2.61-11.75,1.72-2.3,4.05-3.48,6.89-3.48s4.94,1.06,6.69,3.22,2.67,5.6,2.84,10.43c.75,16.4,8.19,31.31,22.32,44.75,14.1,13.44,33.09,20.17,56.96,20.17s42.69-7.04,56.5-21.11c13.82-14.08,20.71-30.74,20.71-49.95,0-11.75-2.64-22.2-7.93-31.4-5.29-9.16-13.13-16.43-23.55-21.77-7.24-3.73-22.35-7.93-45.3-12.55-31.57-6.23-54.29-15.77-68.17-28.58-13.9-12.81-20.83-31.08-20.83-54.78s7.96-43.72,23.9-60.64c15.91-16.92,36.94-25.36,63.08-25.36s49.46,9.88,68.62,29.64l.03.06Z"/>
      <path class="cls-2" d="m522.03,609.43h103.3c4.54,0,7.78,1.06,9.74,3.22,1.95,2.13,2.96,4.91,2.96,8.27s-.98,5.89-2.96,8.01c-1.95,2.13-5.2,3.22-9.74,3.22h-103.3v149.34c0,13.01,4.42,23.87,13.24,32.6,8.82,8.73,21.77,13.1,38.84,13.1,12.84,0,26.71-2.27,41.68-6.81,14.97-4.54,26.57-9.65,34.87-15.37,3.02-2.3,5.52-3.48,7.47-3.48,2.41,0,4.54,1.12,6.35,3.33,1.81,2.24,2.73,4.85,2.73,7.87,0,2.67-.98,5.17-2.96,7.47-4.83,5.89-16.57,12.24-35.22,19.1-18.64,6.87-36.51,10.28-53.57,10.28-22.2,0-39.87-6.15-53-18.44-13.13-12.29-19.71-28.84-19.71-49.69v-149.34h-35.1c-4.54,0-7.78-1.06-9.74-3.22-1.95-2.13-2.96-4.91-2.96-8.27s.98-5.89,2.96-8.01c1.95-2.13,5.2-3.22,9.74-3.22h35.1v-66.24c0-5.34.92-9.16,2.73-11.49,1.81-2.3,4.08-3.48,6.81-3.48,2.87,0,5.2,1.15,7.01,3.48,1.81,2.33,2.73,6.15,2.73,11.49v66.27Z"/>
      <path class="cls-2" d="m904.59,840.78v-32.86c-25.97,27.78-54.06,41.68-84.25,41.68-18.56,0-32.69-5.97-42.34-17.9-12.52-15.68-18.79-33.92-18.79-54.78v-144.8h-25.59c-4.54,0-7.78-1.06-9.74-3.22-1.95-2.13-2.93-4.91-2.93-8.27s.98-5.89,2.93-8.01c1.95-2.13,5.2-3.22,9.74-3.22h44.61v167.5c0,14.59,3.94,26.63,11.78,36.08s17.67,14.16,29.44,14.16c30.97,0,59.35-16.75,85.17-50.21v-144.8h-35.1c-4.54,0-7.78-1.06-9.74-3.22-1.95-2.13-2.96-4.91-2.96-8.27s.98-5.89,2.96-8.01c1.95-2.13,5.2-3.22,9.74-3.22h54.15v208.92h16.09c4.54,0,7.78,1.03,9.74,3.07,1.95,2.04,2.96,4.77,2.96,8.16s-.98,5.89-2.96,8.01c-1.95,2.13-5.2,3.22-9.74,3.22h-35.16Z"/>
      <path class="cls-2" d="m1211.03,505.5v312.85h25.36c4.68,0,8.01,1.03,9.97,3.07,1.95,2.04,2.96,4.77,2.96,8.16s-.98,5.89-2.96,8.01c-1.95,2.13-5.29,3.22-9.97,3.22h-44.61v-44.61c-22.03,35.62-50.07,53.43-84.02,53.43-17.21,0-33.72-5.4-49.49-16.17-15.77-10.77-28.24-26.14-37.37-46.08-9.13-19.94-13.7-40.5-13.7-61.7s4.57-42,13.7-61.85c9.13-19.85,21.6-35.22,37.37-46.08,15.77-10.86,32.34-16.29,49.72-16.29,33.21,0,61.16,17.81,83.79,53.43v-126.62h-25.36c-4.68,0-8.01-1.06-9.97-3.22-1.95-2.13-2.96-4.88-2.96-8.27s.98-5.89,2.96-8.01c1.95-2.13,5.29-3.22,9.97-3.22h44.61v-.06Zm-19.25,220.12c0-28.5-8.16-52.54-24.47-72.13-16.32-19.59-35.71-29.39-58.2-29.39s-42.14,9.8-58.43,29.39c-16.32,19.59-24.47,43.63-24.47,72.13s8.16,52.31,24.47,71.99c16.32,19.68,35.79,29.53,58.43,29.53s41.91-9.82,58.2-29.53c16.32-19.68,24.47-43.69,24.47-71.99Z"/>
      <path class="cls-2" d="m1406.28,609.43v208.92h74.74c4.68,0,8.01,1.03,9.97,3.07,1.95,2.04,2.93,4.77,2.93,8.16s-.98,5.89-2.93,8.01c-1.95,2.13-5.29,3.22-9.97,3.22h-168.5c-4.54,0-7.78-1.06-9.74-3.22-1.95-2.13-2.96-4.8-2.96-8.01,0-3.39.98-6.09,2.96-8.16,1.95-2.04,5.2-3.07,9.74-3.07h74.74v-186.2h-55.5c-4.54,0-7.81-1.06-9.85-3.22-2.04-2.13-3.05-4.8-3.05-8.01,0-3.39.98-6.15,2.93-8.27s5.29-3.22,9.97-3.22h74.51Zm-.69-115.13v57.97h-28.09v-57.97h28.09Z"/>
      <path class="cls-2" d="m1790.88,685.29c0,29.93-5.14,57.65-15.4,83.22-10.28,25.57-24.42,45.47-42.46,59.72-18.04,14.25-37.4,21.37-58.11,21.37-30.65,0-57.65-15.37-80.98-46.08-23.32-30.74-34.99-70.12-34.99-118.2s11.66-87.73,34.99-118.35c23.32-30.62,50.33-45.96,80.98-45.96,20.68,0,40.01,7.12,58,21.37,17.95,14.25,32.12,34.1,42.46,59.58,10.34,25.48,15.51,53.26,15.51,83.36v-.03Zm-19.25,0c0-36.51-8.99-69.29-26.94-98.3-17.98-29.04-41.22-43.55-69.77-43.55-26.71,0-49.58,13.85-68.51,41.54-18.96,27.69-28.44,61.13-28.44,100.31,0,41.68,9.94,75.75,29.79,102.18,19.85,26.46,42.25,39.67,67.16,39.67,28.55,0,51.79-14.48,69.77-43.4,17.95-28.93,26.94-61.76,26.94-98.44Z"/>
    </g>
  </g>
  <path class="cls-1" d="m1163.69,405.88c4.42,4.54,10.77,12.29,17.15,12.29,1.15,0,3.45-.17,4.91-1.18l2.79,2.01c-3.27,6.41-8.01,13.79-18.61,13.79-6.69,0-14.05-4.05-21.08-10.25-8.5,6.58-18.96,10.25-33.01,10.25-21.74,0-38.23-11.12-38.23-31.14s17.32-29.3,27.61-32.32c-7.35-11.12-12.75-21.89-12.75-31.8,0-11.43,9.16-25.91,29.41-25.91,15.37,0,28.27,8.76,28.27,22.2,0,14.97-12.75,24.42-22.87,27.26,10.28,14.13,21.26,27.78,32.83,40.73,2.44-3.71,4.42-7.24,5.72-10.25-.98.34-1.95.52-3.1.52-6.87,0-12.27-5.72-12.27-12.78s5.4-12.78,12.27-12.78,12.41,5.72,12.41,12.78c0,8.24-5.06,17.35-11.43,26.6v-.03Zm-55.73-32.32c-4.74,5.72-6.87,14.97-6.55,23.73.8,14.31,11.12,27.26,25.34,27.26,7.04,0,12.75-2.18,17.81-5.89-13.07-12.47-25.97-29.96-36.6-45.1h0Zm23.7-39.9c-.66-10.25-5.23-16.83-11.26-16.83s-9.65,5.06-9.48,11.12c.17,8.59,5.89,18.53,13.87,29.79,4.57-5.89,7.35-14.65,6.87-24.07h0Z"/>
</svg>