<?xml version="1.0" encoding="UTF-8"?>
<svg id="Layer_1" data-name="Layer 1" xmlns="http://www.w3.org/2000/svg" viewBox="0 0 400.96 563.65">
  <defs>
    <style>
      .cls-1 {
        fill: #fff;
      }

      .cls-1, .cls-2 {
        stroke-width: 0px;
      }

      .cls-2 {
        fill: #932d1f;
      }
    </style>
  </defs>
  <path class="cls-2" d="m281.3,186.03c-3.35-45.07-10.94-89.82-22.61-133.48-4.8-17.93-11.63-37.41-27.89-46.37-7.48-4.12-16.16-5.47-24.69-5.98-19.86-1.17-41.25,2.59-55.66,16.31-12.33,11.75-17.72,28.94-21.14,45.63-6.57,32.04-7.64,64.92-8.68,97.62-.33,10.34-.66,20.68-.99,31.02,6.1-2.85,6.92-9.01,13.62-8.25.05-31.34.11-62.67.16-94.01.02-10.48.09-21.25,3.96-30.99,11.03-27.72,46.05-35.19,75.67-38.73,4.85-.58,10.01-1.11,14.39,1.03,7.33,3.58,9.45,12.84,10.72,20.9,8.01,50.56,16.02,101.13,24.04,151.69.46,2.93,1.05,6.1,3.24,8.12,6.24,5.75,16.49-6.04,15.86-14.51Z"/>
  <path class="cls-1" d="m396.31,184.48c4.39,89.13,5.67,178.41,3.84,267.63-.77,37.7-5.61,81.75-37.85,101.32-20.06,12.17-45.19,10.91-68.58,9.03-93.24-7.51-186.18-18.7-278.53-33.54-4.75-.76-10-1.82-12.85-5.7-2.47-3.36-2.43-7.88-2.28-12.05,2.22-62.82,4.44-125.65,6.66-188.47,1.38-39.14-14.5-119.75,28.03-136.04,29.1-11.15,361.57,5.09,361.57-2.18Z"/>
</svg>