<?xml version="1.0" encoding="UTF-8"?>
<svg id="Layer_1" data-name="Layer 1" xmlns="http://www.w3.org/2000/svg" viewBox="0 0 553.27 502.39">
  <defs>
    <style>
      .cls-1 {
        fill: #897b72;
        stroke-width: 0px;
      }
    </style>
  </defs>
  <path class="cls-1" d="m523.92,116.92C469.3,15.38,320.09-30.41,217.18,21.63,60.34,26.33-42.28,189.67,17.02,337.06c59.76,148.53,249.39,201.05,388.15,141.2,134.4-57.97,185.97-236.36,118.75-361.34Zm-119.19,313.72c-112.56,70.27-267.51,21.22-338.13-83.88C-9.8,233.06,61.98,97.22,176.04,55.94c-1.47,13.96,15.43,28.55,30.32,20.01,92.74-53.21,211.53-38.49,275.26,53.53,68.2,98.47,18.4,241.67-76.9,301.16Z"/>
  <path class="cls-1" d="m383.05,275.8c-14.12,61.68-98.84,95.69-149.43,52.58-11.12-9.47-27.2,6.11-16.21,16.21,62.44,57.39,177.12,25.46,193.55-61.09,3.44-18.13-23.71-26.03-27.91-7.69Z"/>
  <path class="cls-1" d="m340.18,153.51c-34.16,0-34.16,52.97,0,52.97s34.16-52.97,0-52.97Z"/>
  <path class="cls-1" d="m165.38,189.58c-34.16,0-34.16,52.97,0,52.97s34.16-52.97,0-52.97Z"/>
</svg>